<svg xmlns="http://www.w3.org/2000/svg" viewBox="0.0 0.0 750 565"     height="565px" width="750px">
<path fill="#e8dfc9" stroke-opacity="0" d="M0 0 L0 565 L750 565 L750 0 Z"></path>
<path fill="#e8dfc9" stroke-opacity="0" d="M0 0 L0 82 L0 82 L0 42 L46 42 L46 43 L67 43 L67 54 L66 54 L33 54 L33 80 L33 118 L26 118 L47 118 L47 143 L47 147 L74 147 L80 147 L80 164 L80 172 L99 172 L99 196 L96 196 L115 196 L115 223 L115 243 L96 243 L104 243 L104 269 L104 272 L136 272 L136 259 L179 259 L179 272 L197 272 L197 269 L231 269 L231 240 L222 240 L222 236 L233 236 L233 250 L261 250 L269 250 L269 305 L269 305 L330 305 L349 305 L349 274 L349 254 L380 254 L387 254 L387 216 L387 144 L346 144 L346 112 L340 112 L368 112 L368 62 L340 62 L340 86 L324 86 L324 71 L330 71 L330 45 L330 34 L354 34 L354 34 L388 34 L396 34 L396 44 L396 55 L390 55 L390 50 L442 50 L442 64 L458 64 L458 44 L490 44 L490 44 L509 44 L509 71 L538 71 L538 229 L519 229 L523 229 L523 249 L523 274 L551 274 L566 274 L566 314 L566 311 L609 311 L625 311 L625 290 L630 290 L630 257 L630 249 L649 249 L649 252 L682 252 L692 252 L692 230 L692 217 L729 217 L729 207 L725 207 L693 207 L693 208 L716 208 L716 172 L716 175 L749 175 L749 0 L749 0 L0 0"></path>
<path fill="#e0d1bc" stroke-opacity="0" d="M0 76 L0 86 L0 86 L0 92 L17 92 L17 120 L10 120 L10 150 L43 150 L43 153 L67 153 L70 153 L70 166 L70 177 L90 177 L90 187 L83 187 L40 187 L40 184 L44 184 L44 198 L44 201 L72 201 L82 201 L82 224 L82 239 L69 239 L69 250 L84 250 L90 250 L90 275 L90 266 L180 266 L180 277 L195 277 L195 283 L246 283 L256 283 L256 316 L261 316 L261 304 L262 304 L262 317 L262 318 L299 318 L299 306 L329 306 L329 294 L319 294 L271 294 L271 297 L271 243 L260 243 L233 243 L233 230 L220 230 L220 235 L227 235 L227 262 L197 262 L197 266 L183 266 L183 253 L136 253 L136 266 L102 266 L102 262 L102 248 L96 248 L96 235 L113 235 L115 235 L115 218 L115 190 L96 190 L99 190 L99 166 L80 166 L80 158 L80 141 L74 141 L47 141 L47 137 L47 111 L25 111 L32 111 L32 87 L32 61 L65 61 L72 61 L72 38 L46 38 L46 36 L0 36"></path>
<path fill="#a2927a" stroke-opacity="0" d="M490 38 L490 74 L533 74 L533 141 L520 141 L524 141 L524 69 L501 69 L501 67 L508 67 L508 92 L483 92 L483 95 L502 95 L502 126 L502 168 L502 168 L511 168 L511 188 L511 259 L496 259 L496 265 L523 265 L523 280 L539 280 L548 280 L548 310 L548 352 L546 352 L552 352 L552 343 L559 343 L559 356 L564 356 L564 347 L564 349 L749 349 L749 316 L749 316 L638 316 L638 333 L562 333 L562 329 L562 275 L554 275 L554 242 L522 242 L522 226 L519 226 L538 226 L538 67 L538 39 L511 39 L490 39"></path>
<path fill="#c4b695" stroke-opacity="0" d="M452 59 L452 85 L446 85 L446 71 L438 71 L438 95 L433 95 L433 115 L486 115 L486 98 L508 98 L508 74 L500 74 L500 76 L525 76 L525 130 L518 130 L524 130 L524 162 L526 162 L526 60 L502 60 L502 46 L502 67 L493 67 L496 67 L496 89 L470 89 L470 91 L458 91 L458 85 L458 77 L475 77 L475 67 L475 67 L460 67 L460 69 L460 59"></path>
<path fill="#5a4e44" stroke-opacity="0" d="M429 53 L387 53 L387 61 L357 61 L357 90 L357 117 L352 117 L363 117 L363 155 L372 155 L372 165 L372 159 L387 159 L389 159 L389 150 L379 150 L379 148 L385 148 L385 133 L385 121 L416 121 L416 138 L461 138 L472 138 L472 167 L472 164 L489 164 L489 206 L465 206 L422 206 L422 226 L403 226 L403 225 L403 234 L401 234 L401 234 L426 234 L426 217 L466 217 L477 217 L477 187 L477 166 L504 166 L504 117 L500 117 L435 117 L435 91 L437 91 L437 58 L429 58"></path>
<path fill="#48443c" stroke-opacity="0" d="M478 109 L425 109 L425 93 L427 93 L427 56 L387 56 L387 64 L387 101 L355 101 L371 101 L371 160 L380 160 L380 131 L380 118 L399 118 L399 131 L460 131 L460 124 L460 124 L410 124 L410 103 L366 103 L366 119 L366 109 L357 109 L361 109 L361 98 L361 69 L393 69 L393 66 L428 66 L428 90 L417 90 L421 90 L421 105 L421 120 L477 120 L478 120"></path>
<path fill="#323332" stroke-opacity="0" d="M362 91 L362 113 L357 113 L366 113 L366 125 L366 109 L410 109 L410 131 L462 131 L476 131 L476 158 L476 142 L494 142 L494 114 L491 114 L417 114 L417 96 L427 96 L427 82 L427 58 L426 58 L389 58 L389 65 L362 65"></path>
<path fill="#c8a792" stroke-opacity="0" d="M0 80 L0 472 L0 472 L10 472 L10 489 L10 448 L59 448 L59 440 L91 440 L91 378 L75 378 L75 368 L89 368 L90 368 L90 352 L90 369 L116 369 L116 356 L130 356 L130 365 L155 365 L155 358 L164 358 L164 341 L161 341 L161 338 L207 338 L210 338 L210 330 L181 330 L181 314 L181 310 L201 310 L203 310 L203 300 L169 300 L169 306 L182 306 L182 327 L161 327 L161 330 L136 330 L136 327 L141 327 L141 305 L134 305 L134 300 L94 300 L94 305 L97 305 L97 276 L97 236 L74 236 L74 230 L82 230 L83 230 L83 198 L42 198 L42 190 L42 192 L86 192 L89 192 L89 170 L12 170 L12 115 L17 115 L17 87 L0 87"></path>
<path fill="#7b5f4e" stroke-opacity="0" d="M357 118 L357 150 L357 150 L372 150 L372 172 L372 166 L393 166 L405 166 L405 148 L405 154 L416 154 L416 125 L409 125 L419 125 L419 138 L419 135 L434 135 L427 135 L427 139 L433 139 L433 153 L433 140 L454 140 L454 146 L465 146 L474 146 L474 173 L474 197 L467 197 L428 197 L428 221 L401 221 L401 223 L401 235 L399 235 L399 208 L469 208 L489 208 L489 157 L472 157 L472 161 L472 132 L461 132 L402 132 L402 116 L386 116 L386 126 L386 159 L372 159 L372 142 L359 142 L359 118"></path>
<path fill="#906d56" stroke-opacity="0" d="M460 135 L433 135 L433 147 L437 147 L437 129 L419 129 L419 132 L419 119 L415 119 L392 119 L392 126 L394 126 L394 152 L375 152 L375 160 L375 168 L375 168 L375 161 L395 161 L398 161 L398 134 L398 130 L406 130 L417 130 L417 154 L417 150 L457 150 L465 150 L465 181 L431 181 L431 213 L401 213 L401 215 L401 231 L398 231 L398 227 L428 227 L428 204 L466 204 L476 204 L476 169 L476 135"></path>
<path fill="#c2a58b" stroke-opacity="0" d="M457 144 L429 144 L429 151 L405 151 L405 142 L377 142 L377 166 L359 166 L359 154 L388 154 L388 223 L388 247 L381 247 L352 247 L352 265 L352 310 L318 310 L318 372 L293 372 L234 372 L234 392 L215 392 L215 409 L215 372 L304 372 L311 372 L311 337 L354 337 L354 282 L354 258 L388 258 L397 258 L397 225 L397 222 L425 222 L425 198 L462 198 L462 144"></path>
<path fill="#d7a68d" stroke-opacity="0" d="M453 152 L423 152 L423 155 L432 155 L432 195 L432 216 L421 216 L421 196 L446 196 L453 196"></path>
<path fill="#9a6655" stroke-opacity="0" d="M410 160 L398 160 L398 170 L399 170 L399 201 L399 211 L415 211 L426 211 L426 187 L426 160"></path>
<path fill="#3c3c38" stroke-opacity="0" d="M498 160 L498 180 L478 180 L478 209 L469 209 L426 209 L426 228 L401 228 L401 229 L401 273 L390 273 L407 273 L407 295 L385 295 L385 304 L385 283 L374 283 L348 283 L348 302 L348 340 L319 340 L319 369 L316 369 L261 369 L261 415 L153 415 L153 442 L155 442 L155 451 L155 461 L197 461 L211 461 L211 486 L211 470 L253 470 L253 488 L253 488 L269 488 L269 507 L269 479 L268 479 L268 481 L281 481 L281 524 L278 524 L251 524 L251 535 L251 525 L243 525 L246 525 L246 496 L234 496 L234 493 L234 526 L225 526 L225 544 L208 544 L208 528 L234 528 L250 528 L250 551 L250 554 L270 554 L270 537 L288 537 L288 488 L288 488 L288 485 L323 485 L323 461 L372 461 L384 461 L384 405 L372 405 L372 401 L372 373 L359 373 L373 373 L373 334 L373 341 L391 341 L391 323 L414 323 L419 323 L419 298 L419 291 L448 291 L448 253 L508 253 L508 229 L500 229 L510 229 L510 213 L510 181 L510 181 L510 160"></path>
<path fill="#dbd0bd" stroke-opacity="0" d="M749 169 L716 169 L716 166 L716 194 L694 194 L701 194 L701 218 L701 242 L686 242 L630 242 L630 251 L630 285 L625 285 L625 305 L609 305 L582 305 L582 310 L560 310 L560 300 L563 300 L563 336 L563 339 L638 339 L638 322 L749 322 L749 169"></path>
<path fill="#555553" stroke-opacity="0" d="M398 225 L398 251 L389 251 L355 251 L355 275 L355 330 L312 330 L312 389 L295 389 L295 376 L315 376 L329 376 L329 328 L329 292 L368 292 L368 290 L378 290 L385 290 L385 310 L385 302 L406 302 L407 302 L407 289 L407 269 L390 269 L402 269 L402 237 L402 225"></path>
<path fill="#2a2d2e" stroke-opacity="0" d="M533 266 L508 266 L508 253 L482 253 L482 260 L448 260 L448 285 L419 285 L419 292 L419 316 L415 316 L391 316 L391 335 L369 335 L369 332 L369 373 L358 373 L373 373 L373 408 L373 410 L382 410 L382 455 L372 455 L323 455 L323 479 L288 479 L288 482 L288 532 L288 532 L270 532 L270 548 L250 548 L250 545 L250 522 L233 522 L233 537 L219 537 L176 537 L176 541 L176 555 L173 555 L173 564 L192 564 L192 564 L483 564 L483 534 L478 534 L478 538 L485 538 L496 538 L496 502 L496 500 L505 500 L514 500 L514 522 L514 522 L522 522 L545 522 L545 454 L545 434 L530 434 L559 434 L559 340 L546 340 L546 342 L547 342 L547 303 L547 266"></path>
<path fill="#ccbda7" stroke-opacity="0" d="M98 267 L98 313 L96 313 L96 308 L138 308 L138 332 L134 332 L134 336 L141 336 L141 327 L204 327 L217 327 L217 349 L224 349 L224 403 L224 378 L293 378 L303 378 L303 338 L325 338 L325 315 L325 306 L321 306 L262 306 L262 311 L262 296 L262 296 L262 310 L256 310 L259 310 L259 282 L231 282 L231 271 L195 271 L195 271 L180 271 L180 260 L138 260 L138 270 L98 270"></path>
<path fill="#373b3d" stroke-opacity="0" d="M461 284 L420 284 L420 301 L420 334 L419 334 L390 334 L390 344 L372 344 L372 337 L372 363 L367 363 L377 363 L377 375 L377 372 L392 372 L392 383 L410 383 L410 372 L443 372 L449 372 L449 347 L449 311 L425 311 L425 284"></path>
<path fill="#a38c76" stroke-opacity="0" d="M303 366 L224 366 L224 400 L224 331 L211 331 L160 331 L160 335 L160 365 L156 365 L194 365 L194 417 L157 417 L157 428 L157 436 L156 436 L93 436 L93 447 L93 454 L93 454 L93 422 L259 422 L259 393 L293 393 L303 393"></path>
<path fill="#cd8d58" stroke-opacity="0" d="M749 343 L694 343 L694 344 L720 344 L720 385 L706 385 L706 386 L706 364 L700 364 L702 364 L702 400 L702 377 L749 377 L749 343"></path>
<path fill="#b87947" stroke-opacity="0" d="M733 381 L733 374 L733 374 L720 374 L720 379 L720 349 L695 349 L702 349 L702 339 L620 339 L620 347 L627 347 L627 361 L627 363 L694 363 L709 363 L709 395 L709 381"></path>
<path fill="#9a6739" stroke-opacity="0" d="M559 360 L559 366 L571 366 L571 360 L605 360 L605 372 L645 372 L649 372 L649 385 L649 368 L678 368 L678 369 L694 369 L694 355 L690 355 L627 355 L627 355 L627 341 L614 341 L564 341 L564 341 L564 360"></path>
<path fill="#b8afa0" stroke-opacity="0" d="M158 360 L130 360 L130 350 L116 350 L116 363 L90 363 L90 346 L90 361 L90 361 L75 361 L75 373 L90 373 L90 429 L59 429 L59 442 L10 442 L10 483 L10 466 L0 466 L0 535 L0 535 L8 535 L8 500 L29 500 L29 475 L29 471 L50 471 L50 452 L73 452 L73 434 L182 434 L182 421 L196 421 L198 421 L198 409 L171 409 L171 390 L171 360"></path>
<path fill="#6d4d2a" stroke-opacity="0" d="M601 360 L587 360 L587 364 L587 382 L577 382 L581 382 L581 360 L556 360 L556 352 L556 430 L541 430 L541 435 L564 435 L564 473 L537 473 L537 519 L528 519 L508 519 L508 534 L508 564 L505 564 L505 564 L568 564 L568 507 L564 507 L564 501 L602 501 L615 501 L615 470 L615 459 L632 459 L632 434 L619 434 L619 421 L639 421 L639 397 L630 397 L613 397 L613 392 L613 360"></path>
<path fill="#7b583a" stroke-opacity="0" d="M577 369 L577 388 L577 388 L587 388 L587 370 L587 366 L601 366 L614 366 L614 399 L614 403 L630 403 L636 403 L636 419 L636 403 L691 403 L695 403 L695 411 L695 403 L749 403 L749 371 L749 371 L704 371 L704 395 L704 361 L696 361 L650 361 L650 379 L650 366 L645 366 L605 366 L605 354 L577 354"></path>
<path fill="#4e3d24" stroke-opacity="0" d="M549 364 L549 446 L528 446 L528 450 L544 450 L544 477 L530 477 L530 507 L528 507 L515 507 L515 517 L515 497 L508 497 L497 497 L497 495 L497 531 L486 531 L479 531 L479 527 L484 527 L484 564 L484 564 L505 564 L507 564 L507 541 L507 526 L527 526 L536 526 L536 480 L564 480 L564 439 L564 428 L564 428 L540 428 L540 423 L549 423"></path>
<path fill="#5b4228" stroke-opacity="0" d="M597 366 L597 432 L572 432 L572 430 L588 430 L604 430 L604 401 L604 366"></path>
<path fill="#2c2e2d" stroke-opacity="0" d="M322 395 L298 395 L298 386 L298 420 L264 420 L174 420 L174 440 L174 449 L172 449 L172 452 L198 452 L214 452 L214 481 L214 464 L246 464 L246 475 L286 475 L286 459 L316 459 L325 459 L325 443 L325 395"></path>
<path fill="#554d40" stroke-opacity="0" d="M749 397 L672 397 L672 401 L626 401 L626 420 L626 437 L618 437 L618 433 L639 433 L652 433 L652 446 L660 446 L660 431 L660 421 L711 421 L711 431 L749 431 L749 397"></path>
<path fill="#33322d" stroke-opacity="0" d="M749 425 L711 425 L711 415 L660 415 L660 425 L660 440 L652 440 L652 427 L639 427 L620 427 L620 429 L620 439 L618 439 L632 439 L632 454 L616 454 L616 463 L616 494 L603 494 L565 494 L565 500 L566 500 L566 564 L566 564 L683 564 L683 538 L733 538 L733 523 L733 523 L706 523 L706 516 L681 516 L681 495 L681 504 L749 504 L749 425"></path>
<path fill="#4b4946" stroke-opacity="0" d="M282 475 L268 475 L268 473 L269 473 L269 501 L269 483 L253 483 L253 464 L253 464 L211 464 L211 480 L211 455 L197 455 L163 455 L163 446 L163 439 L193 439 L193 432 L193 432 L116 432 L116 445 L116 454 L115 454 L115 455 L133 455 L114 455 L114 458 L114 501 L84 501 L70 501 L70 501 L72 501 L72 487 L72 511 L50 511 L36 511 L36 499 L45 499 L45 473 L23 473 L23 482 L23 511 L10 511 L14 511 L14 548 L0 548 L0 548 L0 564 L0 564 L0 564 L191 564 L191 551 L190 551 L190 533 L224 533 L231 533 L231 500 L231 503 L247 503 L247 529 L243 529 L251 529 L251 541 L251 530 L278 530 L282 530"></path>
<path fill="#6b6053" stroke-opacity="0" d="M156 433 L73 433 L73 446 L29 446 L29 469 L29 493 L9 493 L9 554 L0 554 L0 553 L14 553 L14 518 L9 518 L26 518 L26 485 L26 479 L43 479 L43 506 L37 506 L47 506 L47 516 L47 515 L59 515 L68 515 L68 499 L69 499 L69 507 L69 507 L84 507 L113 507 L113 460 L84 460 L84 464 L62 464 L62 485 L62 466 L62 466 L62 442 L156 442 L156 433"></path>
<path fill="#483e2f" stroke-opacity="0" d="M134 449 L69 449 L69 453 L69 471 L57 471 L58 471 L58 489 L58 463 L102 463 L102 462 L132 462 L134 462"></path>
<path fill="#363634" stroke-opacity="0" d="M33 481 L33 510 L15 510 L28 510 L28 564 L42 564 L42 523 L42 481"></path>
<path fill="#3f3f39" stroke-opacity="0" d="M676 489 L703 489 L703 520 L703 530 L734 530 L679 530 L679 564 L679 564 L749 564 L749 498 L749 498 L676 498"></path>
<path fill="#515b73" stroke-opacity="0" d="M112 488 L92 488 L92 501 L92 544 L86 544 L86 537 L109 537 L112 537"></path>
</svg>