<svg xmlns="http://www.w3.org/2000/svg" viewBox="0.0 0.0 1200 950"     height="950px" width="1200px">
<path fill="#526c91" stroke-opacity="0" d="M0 0 L0 950 L1200 950 L1200 0 Z"></path>
<path fill="#4d6180" stroke-opacity="0" d="M343 0 L149 0 L152 14 L173 17 L179 66 L143 96 L95 81 L76 60 L100 0 L0 0 L0 466 L7 475 L10 564 L44 562 L67 548 L92 552 L119 584 L137 588 L152 607 L167 607 L168 586 L120 561 L108 533 L122 510 L162 512 L171 521 L182 492 L193 491 L185 416 L178 422 L170 399 L89 403 L81 421 L89 441 L78 456 L41 461 L28 438 L33 400 L23 396 L41 386 L43 375 L18 359 L52 370 L41 325 L56 343 L74 337 L83 319 L120 340 L156 338 L161 323 L152 309 L190 302 L197 287 L191 269 L210 286 L218 279 L216 256 L175 257 L126 244 L103 228 L93 237 L72 229 L54 192 L37 180 L41 169 L26 129 L50 147 L51 139 L72 133 L73 123 L90 120 L96 103 L130 106 L139 125 L193 114 L213 125 L213 141 L228 49 L241 44 L279 71 L311 60 L316 46 L339 54 L348 35 L332 12"></path>
<path fill="#829070" stroke-opacity="0" d="M105 0 L95 68 L119 85 L162 76 L169 45 L159 10 L148 0"></path>
<path fill="#3c4d7c" stroke-opacity="0" d="M217 144 L221 103 L235 72 L247 101 L244 141 L270 125 L309 130 L301 94 L351 114 L356 101 L395 107 L403 88 L452 88 L480 107 L512 105 L504 117 L488 116 L488 127 L504 134 L518 120 L559 134 L623 85 L662 87 L666 106 L690 54 L726 41 L737 53 L757 43 L789 78 L798 127 L785 130 L780 152 L764 151 L734 168 L740 187 L728 182 L723 193 L744 211 L758 244 L782 247 L790 194 L799 200 L821 178 L848 180 L860 159 L904 174 L888 105 L895 99 L900 114 L928 74 L944 77 L947 93 L959 97 L978 68 L970 47 L982 36 L1010 52 L1079 36 L1086 27 L1121 31 L1136 44 L1178 46 L1180 7 L1175 0 L425 0 L426 11 L447 27 L447 43 L415 74 L381 51 L382 29 L404 12 L406 0 L344 0 L330 7 L347 32 L339 48 L316 40 L311 54 L279 65 L241 38 L229 42"></path>
<path fill="#718478" stroke-opacity="0" d="M407 0 L383 22 L381 55 L420 80 L444 57 L447 21 L424 0"></path>
<path fill="#658098" stroke-opacity="0" d="M1199 0 L1176 0 L1178 40 L1136 38 L1121 25 L1086 21 L1079 30 L1010 46 L982 30 L971 40 L974 72 L956 98 L927 117 L941 151 L932 174 L944 224 L959 244 L968 284 L989 304 L1066 322 L1080 307 L1118 303 L1137 290 L1152 289 L1157 299 L1183 295 L1158 311 L1159 323 L1183 325 L1182 341 L1115 376 L1092 375 L999 421 L999 431 L1033 413 L1113 392 L1186 353 L1191 254 L1185 229 L1146 274 L1125 281 L1098 280 L1085 292 L1052 276 L1015 282 L1008 243 L955 198 L963 191 L966 123 L984 99 L983 85 L1061 47 L1113 44 L1182 99 L1189 8"></path>
<path fill="#c4b28d" stroke-opacity="0" d="M1189 1 L1193 38 L1183 84 L1191 101 L1192 250 L1199 260 L1199 1"></path>
<path fill="#526c91" stroke-opacity="0" d="M1184 291 L1137 284 L1118 297 L1080 301 L1066 316 L982 292 L966 275 L937 195 L941 147 L927 123 L958 101 L942 70 L925 70 L900 108 L897 92 L887 101 L901 170 L860 153 L848 167 L812 177 L799 194 L790 188 L782 241 L758 238 L740 203 L752 239 L749 268 L687 215 L684 191 L659 192 L623 174 L671 171 L699 179 L732 207 L727 189 L739 194 L739 173 L783 155 L784 137 L800 133 L796 96 L775 50 L757 37 L737 47 L726 35 L690 48 L667 86 L665 116 L694 139 L708 168 L655 157 L630 162 L644 151 L648 129 L627 130 L633 146 L623 149 L604 124 L587 125 L591 106 L559 128 L522 114 L504 128 L452 113 L442 98 L401 111 L424 85 L398 80 L389 92 L399 99 L356 95 L351 108 L298 91 L309 129 L335 170 L309 218 L328 223 L360 185 L405 157 L414 169 L380 185 L337 229 L349 230 L367 212 L376 229 L417 217 L416 260 L459 243 L418 280 L434 339 L423 355 L403 357 L402 367 L427 382 L421 415 L371 434 L337 429 L322 438 L331 453 L359 449 L339 501 L357 543 L363 606 L396 637 L404 634 L398 609 L498 567 L618 556 L632 572 L649 574 L709 538 L740 547 L772 528 L877 538 L931 504 L962 462 L1015 415 L1092 381 L1115 382 L1182 347 L1182 318 L1159 316 L1181 305"></path>
<path fill="#8fa492" stroke-opacity="0" d="M987 72 L984 94 L966 118 L955 203 L1009 250 L1011 284 L1029 290 L1052 282 L1083 298 L1098 286 L1125 287 L1146 280 L1187 235 L1193 342 L1199 254 L1192 247 L1187 87 L1168 88 L1149 60 L1113 38 L1061 41 L1006 73"></path>
<path fill="#2d3a77" stroke-opacity="0" d="M569 87 L575 104 L598 93 L579 128 L604 130 L630 155 L609 155 L614 168 L640 171 L642 163 L713 172 L697 137 L664 109 L668 77 L655 84 L623 79 L620 57 L646 49 L646 42 L613 46"></path>
<path fill="#788874" stroke-opacity="0" d="M706 52 L692 61 L686 84 L697 129 L735 143 L743 122 L772 126 L789 114 L774 66 L745 49"></path>
<path fill="#a2af85" stroke-opacity="0" d="M1060 56 L993 112 L981 161 L984 217 L994 228 L990 211 L997 210 L1030 263 L1084 281 L1142 250 L1171 178 L1155 170 L1165 139 L1151 138 L1136 121 L1151 115 L1149 101 L1157 99 L1151 79 L1131 62"></path>
<path fill="#b6ba78" stroke-opacity="0" d="M1056 61 L1023 96 L1014 121 L1011 112 L1000 114 L1007 132 L993 142 L984 181 L1027 255 L1042 251 L1049 268 L1066 262 L1080 274 L1124 253 L1145 224 L1154 184 L1130 153 L1133 104 L1106 70 L1085 65 L1066 73"></path>
<path fill="#4a565f" stroke-opacity="0" d="M237 66 L222 96 L219 145 L217 114 L209 143 L213 241 L199 264 L159 260 L159 267 L197 281 L189 297 L167 305 L176 316 L167 391 L178 404 L186 365 L199 385 L212 382 L234 253 L246 267 L235 190 L242 210 L300 215 L321 196 L319 129 L270 119 L245 133"></path>
<path fill="#283887" stroke-opacity="0" d="M394 108 L400 118 L442 104 L452 119 L504 123 L512 99 L480 101 L450 82 L412 86"></path>
<path fill="#344886" stroke-opacity="0" d="M212 118 L193 108 L156 113 L174 87 L149 104 L88 99 L90 113 L72 117 L72 126 L49 140 L26 122 L37 185 L84 241 L103 234 L132 252 L198 263 L213 245"></path>
<path fill="#b4a240" stroke-opacity="0" d="M1103 99 L1055 114 L1023 158 L1030 201 L1076 241 L1128 234 L1148 200 L1146 181 L1123 194 L1098 195 L1070 169 L1073 139 L1112 115"></path>
<path fill="#b9a227" stroke-opacity="0" d="M1100 104 L1055 120 L1028 159 L1035 199 L1051 221 L1077 235 L1126 230 L1142 205 L1139 191 L1095 200 L1064 168 L1065 140 L1103 114"></path>
<path fill="#8c8c4b" stroke-opacity="0" d="M275 129 L267 148 L251 154 L247 188 L256 200 L280 206 L312 190 L314 151 L290 148 L291 133"></path>
<path fill="#435b8f" stroke-opacity="0" d="M410 153 L386 158 L323 219 L312 213 L343 176 L326 145 L321 193 L300 209 L242 204 L236 183 L240 243 L250 243 L262 262 L324 238 L322 256 L333 258 L375 229 L367 204 L413 176"></path>
<path fill="#6b809f" stroke-opacity="0" d="M621 168 L625 182 L659 198 L684 197 L686 220 L751 272 L752 235 L740 202 L714 181 L671 165"></path>
<path fill="#8b9783" stroke-opacity="0" d="M809 191 L801 217 L814 258 L841 262 L862 243 L871 251 L880 246 L872 203 L855 192 L840 197 L824 181"></path>
<path fill="#687f92" stroke-opacity="0" d="M464 235 L416 254 L412 230 L430 218 L422 208 L384 217 L331 253 L322 250 L329 232 L308 232 L262 256 L250 237 L241 237 L264 307 L266 391 L270 362 L311 351 L350 327 L360 339 L358 355 L380 367 L423 361 L436 332 L418 286"></path>
<path fill="#1f2321" stroke-opacity="0" d="M234 246 L238 282 L226 363 L213 396 L190 393 L204 473 L179 523 L191 701 L180 716 L162 721 L166 736 L141 789 L157 884 L174 893 L159 910 L201 906 L199 932 L216 949 L546 949 L570 935 L563 900 L623 899 L657 909 L659 898 L683 901 L699 877 L731 870 L790 886 L834 879 L865 899 L843 865 L889 848 L888 831 L875 824 L821 837 L805 825 L803 802 L784 798 L776 811 L755 803 L749 814 L720 821 L714 833 L675 850 L607 847 L606 839 L572 826 L577 803 L590 803 L585 786 L554 783 L550 807 L520 809 L514 795 L487 792 L479 776 L462 774 L452 734 L459 708 L416 704 L409 717 L396 688 L380 718 L357 680 L342 687 L314 653 L316 585 L303 582 L291 489 L300 457 L289 452 L291 392 L274 396 L265 384 L263 300"></path>
<path fill="#5f799f" stroke-opacity="0" d="M564 262 L567 272 L556 273 L549 299 L574 303 L573 320 L605 321 L605 345 L633 328 L615 360 L647 388 L669 386 L670 363 L687 351 L665 319 L669 289 L659 308 L651 281 L642 285 L634 266 L628 283 L606 267 L592 273 L580 259 L573 268"></path>
<path fill="#2c3541" stroke-opacity="0" d="M235 267 L213 375 L199 379 L186 359 L186 389 L170 411 L179 429 L184 421 L196 466 L194 484 L183 485 L168 523 L164 563 L188 692 L135 717 L96 720 L73 737 L78 721 L59 700 L29 683 L16 686 L10 793 L67 788 L89 800 L68 806 L68 820 L14 819 L6 833 L0 827 L0 925 L18 917 L21 894 L32 885 L75 884 L99 857 L133 908 L145 893 L171 906 L174 889 L157 878 L140 796 L165 743 L163 726 L180 722 L190 708 L178 530 L204 469 L189 400 L211 403 L228 361"></path>
<path fill="#a5ae9c" stroke-opacity="0" d="M1199 277 L1195 333 L1186 347 L1113 386 L1001 424 L963 455 L931 498 L878 529 L878 539 L933 505 L972 461 L981 460 L964 500 L991 523 L1009 507 L1016 511 L1045 475 L1103 476 L1166 430 L1173 431 L1164 460 L1181 464 L1183 482 L1199 496"></path>
<path fill="#6e889f" stroke-opacity="0" d="M174 308 L151 303 L161 329 L141 335 L99 328 L82 313 L74 331 L56 337 L41 319 L40 347 L51 364 L18 354 L21 373 L39 378 L23 391 L23 404 L32 405 L29 445 L38 465 L77 463 L89 447 L82 427 L89 409 L165 405 L166 414 L177 412 L168 387"></path>
<path fill="#3b4d64" stroke-opacity="0" d="M269 358 L272 399 L291 398 L292 500 L303 587 L317 592 L314 659 L342 693 L357 686 L380 724 L396 694 L410 723 L416 710 L440 714 L442 694 L512 664 L510 655 L444 683 L433 676 L445 651 L489 620 L515 627 L574 607 L558 616 L559 625 L600 635 L630 613 L662 608 L662 624 L675 611 L684 616 L651 645 L619 650 L596 667 L560 650 L532 652 L532 659 L561 664 L583 681 L605 679 L546 700 L545 716 L564 733 L567 771 L589 796 L575 796 L572 832 L604 844 L606 853 L675 856 L714 839 L714 811 L742 777 L752 778 L761 799 L781 790 L783 776 L795 788 L858 782 L865 755 L841 760 L814 740 L860 732 L859 723 L842 720 L840 705 L808 715 L790 700 L759 710 L742 698 L779 691 L778 679 L759 684 L764 667 L750 654 L784 633 L773 618 L780 604 L826 604 L891 623 L923 594 L989 580 L989 571 L890 587 L875 580 L848 598 L813 587 L755 587 L708 571 L674 598 L634 599 L586 621 L591 607 L607 607 L605 591 L550 597 L553 584 L538 576 L530 601 L430 612 L429 601 L487 572 L525 575 L569 564 L571 554 L483 565 L398 603 L394 623 L402 630 L392 630 L385 613 L362 599 L356 536 L339 497 L358 455 L383 449 L385 434 L331 447 L326 441 L339 436 L339 425 L325 412 L340 410 L355 423 L376 416 L408 366 L398 354 L380 361 L359 350 L361 334 L351 321"></path>
<path fill="#3e5f92" stroke-opacity="0" d="M427 377 L409 369 L388 382 L387 402 L363 416 L328 402 L325 421 L355 443 L416 424"></path>
<path fill="#94a176" stroke-opacity="0" d="M170 421 L130 439 L144 496 L170 495 L183 481 L185 445"></path>
<path fill="#8ca1a1" stroke-opacity="0" d="M1174 425 L1161 426 L1103 470 L1045 469 L1012 509 L1011 522 L1032 502 L1042 509 L1059 486 L1089 479 L1082 500 L1156 480 L1183 483 L1182 460 L1165 454"></path>
<path fill="#8d9da2" stroke-opacity="0" d="M476 451 L441 435 L412 445 L398 436 L364 450 L352 476 L352 506 L382 584 L427 585 L486 557 L490 512 L500 495"></path>
<path fill="#7e918b" stroke-opacity="0" d="M1199 490 L1184 477 L1156 474 L1085 494 L1089 473 L1059 480 L1040 504 L1032 496 L1016 510 L1009 501 L985 517 L968 495 L997 435 L916 516 L915 527 L931 539 L924 554 L833 551 L793 565 L773 547 L791 526 L772 522 L740 541 L709 532 L649 568 L632 566 L618 550 L578 552 L525 569 L491 565 L432 593 L424 608 L430 618 L527 608 L538 582 L550 588 L539 603 L605 597 L583 615 L584 626 L597 627 L634 605 L674 604 L708 577 L755 593 L813 593 L850 604 L875 586 L882 593 L915 590 L923 569 L995 546 L1022 516 L1044 513 L1060 490 L1085 514 L1091 506 L1090 520 L1072 513 L1078 533 L1104 529 L1106 505 L1160 489 L1182 493 L1199 581"></path>
<path fill="#a4aea8" stroke-opacity="0" d="M438 447 L384 453 L369 467 L373 482 L359 486 L366 532 L393 572 L411 560 L421 578 L478 547 L487 486 L467 467 L449 464"></path>
<path fill="#a9af91" stroke-opacity="0" d="M381 468 L369 497 L378 537 L392 535 L404 545 L415 532 L465 537 L476 529 L476 515 L464 511 L476 493 L458 471 L440 473 L419 458"></path>
<path fill="#6e7262" stroke-opacity="0" d="M0 460 L6 839 L14 825 L74 831 L76 819 L67 813 L89 805 L88 793 L67 782 L20 792 L9 786 L10 741 L19 727 L12 660 L26 641 L24 617 L44 602 L46 576 L73 571 L66 587 L79 594 L75 555 L95 556 L104 566 L104 558 L75 542 L44 556 L10 558"></path>
<path fill="#93a59b" stroke-opacity="0" d="M945 481 L883 535 L780 530 L766 550 L793 571 L833 557 L945 557 L944 545 L926 549 L937 532 L917 521 L940 501"></path>
<path fill="#313c4e" stroke-opacity="0" d="M1183 488 L1160 483 L1106 499 L1107 520 L1058 535 L1044 563 L923 588 L895 616 L826 598 L778 598 L773 623 L781 629 L750 648 L750 665 L763 673 L739 704 L759 716 L790 706 L808 721 L840 711 L842 727 L851 729 L820 730 L811 742 L841 766 L860 763 L859 775 L795 782 L783 770 L780 785 L761 793 L751 771 L742 771 L714 806 L716 825 L747 821 L755 809 L776 817 L785 804 L804 809 L805 830 L821 843 L873 830 L890 841 L849 852 L847 879 L833 873 L790 880 L746 869 L745 878 L789 891 L832 886 L829 912 L839 912 L845 897 L868 907 L908 903 L888 911 L899 949 L939 949 L942 931 L976 946 L994 938 L998 918 L1019 928 L1083 921 L1091 949 L1199 949 L1199 801 L1181 795 L1090 802 L1085 783 L1068 785 L1068 769 L1054 766 L1043 745 L1054 739 L1054 726 L1041 713 L1033 681 L1021 696 L985 690 L938 653 L918 673 L879 672 L890 655 L985 626 L1017 628 L1058 601 L1089 597 L1105 613 L1114 597 L1137 593 L1148 599 L1146 616 L1178 606 L1173 632 L1184 635 L1192 674 L1177 681 L1155 670 L1139 681 L1109 682 L1109 689 L1124 699 L1157 683 L1167 694 L1199 684 L1199 575"></path>
<path fill="#667f8d" stroke-opacity="0" d="M1090 499 L1085 508 L1060 484 L1044 507 L1022 510 L995 540 L923 563 L916 589 L1044 569 L1053 546 L1077 533 L1078 522 L1094 522"></path>
<path fill="#3d5b90" stroke-opacity="0" d="M122 504 L108 526 L111 554 L162 592 L170 509"></path>
<path fill="#85998f" stroke-opacity="0" d="M52 559 L53 568 L68 564 L79 572 L81 610 L104 617 L109 630 L135 633 L168 623 L171 598 L152 601 L95 550"></path>
<path fill="#5b748a" stroke-opacity="0" d="M48 568 L44 596 L24 611 L25 644 L41 634 L75 643 L82 687 L102 676 L104 664 L180 694 L114 717 L83 716 L65 696 L60 712 L77 725 L71 742 L96 726 L179 708 L188 675 L171 583 L167 618 L115 626 L104 611 L81 604 L81 589 L70 583 L73 565"></path>
<path fill="#4e6492" stroke-opacity="0" d="M1192 671 L1186 624 L1173 627 L1177 599 L1147 610 L1149 593 L1110 587 L1105 607 L1092 592 L1076 591 L1017 622 L976 624 L988 654 L959 654 L953 676 L973 692 L1020 702 L1033 687 L1051 713 L1074 715 L1077 694 L1139 687 L1155 676 L1180 687"></path>
<path fill="#4a6785" stroke-opacity="0" d="M691 617 L689 606 L675 605 L664 618 L660 602 L621 610 L596 629 L566 622 L575 616 L568 601 L515 621 L489 614 L450 644 L420 648 L420 656 L438 655 L433 681 L441 689 L510 661 L529 664 L538 654 L563 657 L590 674 L619 656 L651 651"></path>
<path fill="#3d578e" stroke-opacity="0" d="M989 649 L974 625 L890 649 L866 680 L893 673 L918 679 L934 659 L959 676 L956 662 L982 665"></path>
<path fill="#415b83" stroke-opacity="0" d="M12 653 L13 696 L29 689 L58 706 L67 702 L83 722 L119 722 L180 702 L177 682 L161 686 L104 658 L100 671 L82 681 L73 636 L41 628"></path>
<path fill="#26304a" stroke-opacity="0" d="M636 663 L587 676 L535 653 L442 688 L440 707 L457 714 L459 778 L479 782 L487 798 L514 801 L520 815 L550 813 L556 790 L583 793 L563 751 L570 733 L544 708 L631 678"></path>
<path fill="#4f5e62" stroke-opacity="0" d="M1199 678 L1167 688 L1157 677 L1127 693 L1076 688 L1074 709 L1051 707 L1034 683 L1031 697 L1043 703 L1040 718 L1054 732 L1042 739 L1049 766 L1065 775 L1067 791 L1084 788 L1095 810 L1181 801 L1199 807"></path>
<path fill="#434a36" stroke-opacity="0" d="M0 937 L0 949 L223 949 L201 931 L201 900 L167 909 L159 903 L161 887 L145 887 L137 904 L102 851 L75 878 L65 875 L66 916 L47 919 L42 937"></path>
<path fill="#434545" stroke-opacity="0" d="M684 889 L690 914 L711 898 L728 907 L735 924 L728 938 L738 937 L743 949 L899 949 L898 922 L889 915 L910 908 L909 897 L868 901 L849 891 L829 906 L834 880 L789 885 L735 864 L701 870"></path>
<path fill="#272d2c" stroke-opacity="0" d="M64 875 L22 887 L19 910 L0 919 L0 943 L43 943 L47 925 L69 923"></path>
<path fill="#31383a" stroke-opacity="0" d="M546 943 L742 949 L744 923 L713 892 L690 908 L671 890 L659 892 L657 903 L580 890 L561 895 L569 930"></path>
<path fill="#282930" stroke-opacity="0" d="M937 932 L939 949 L1094 949 L1083 915 L1019 922 L998 912 L995 931 L976 940 L944 925"></path>
</svg>