<svg xmlns="http://www.w3.org/2000/svg" viewBox="0.0 0.0 864 595"     height="595px" width="864px">
<path fill="#d4c7af" stroke-opacity="0" d="M0 0 L0 595 L864 595 L864 0 Z"></path>
<path fill="#d4c7af" stroke-opacity="0" d="M848 211 L850 209 L850 128 L863 115 L863 115 L863 17 L863 17 L863 40 L856 47 L856 21 L856 21 L839 21 L831 13 L72 13 L63 22 L63 29 L63 29 L70 36 L92 36 L102 46 L102 119 L114 131 L114 140 L122 148 L134 148 L198 84 L240 84 L253 71 L312 71 L328 87 L355 87 L388 120 L392 120 L397 115 L417 115 L436 134 L436 153 L449 166 L494 166 L498 170 L498 184 L501 181 L511 181 L530 162 L530 157 L546 173 L591 173 L608 156 L608 155 L617 146 L668 146 L684 162 L699 162 L713 148 L769 148 L783 162 L807 162 L823 146 L833 146 L841 154 L841 211 L841 211"></path>
<path fill="#beb4a1" stroke-opacity="0" d="M27 168 L34 161 L34 119 L40 125 L52 125 L56 129 L56 164 L87 133 L90 133 L96 139 L96 174 L96 189 L88 197 L98 187 L111 187 L111 202 L95 218 L194 119 L196 119 L231 84 L266 84 L275 75 L332 75 L338 81 L346 81 L346 71 L346 71 L310 71 L304 65 L253 65 L240 78 L198 78 L134 142 L122 142 L114 134 L114 125 L101 112 L101 39 L91 29 L31 29 L24 22 L24 82 L19 87 L27 95"></path>
<path fill="#dad2c2" stroke-opacity="0" d="M351 79 L343 79 L334 70 L277 70 L270 77 L232 77 L196 113 L187 113 L47 253 L54 260 L94 260 L108 246 L108 238 L123 223 L153 223 L157 227 L163 227 L163 243 L160 246 L168 254 L171 254 L178 247 L196 247 L207 236 L207 229 L216 238 L232 238 L234 236 L234 217 L219 217 L212 210 L212 205 L195 188 L195 174 L194 173 L205 162 L212 162 L212 149 L211 148 L236 123 L238 123 L247 132 L274 132 L282 124 L282 119 L290 111 L309 111 L319 101 L319 93 L326 86 L351 86 L351 79"></path>
<path fill="#bfb7a7" stroke-opacity="0" d="M238 117 L238 135 L238 135 L244 129 L245 129 L252 136 L275 136 L285 126 L285 122 L292 115 L311 115 L322 104 L322 97 L330 89 L353 89 L353 89 L343 99 L347 103 L347 118 L352 123 L362 123 L363 122 L363 106 L365 104 L376 104 L390 118 L390 124 L392 126 L411 126 L411 156 L400 167 L401 168 L415 168 L425 178 L425 181 L440 166 L446 166 L448 168 L469 168 L469 171 L449 191 L461 203 L477 203 L485 195 L485 190 L497 202 L497 202 L493 202 L479 216 L490 227 L490 238 L481 238 L476 243 L480 247 L480 259 L469 259 L463 265 L454 265 L445 256 L445 243 L426 224 L426 233 L417 242 L406 242 L398 234 L398 219 L389 210 L374 210 L360 224 L360 275 L347 288 L374 315 L374 347 L391 364 L521 364 L533 352 L692 352 L724 320 L735 320 L739 316 L762 316 L762 336 L729 369 L841 257 L841 240 L841 148 L833 140 L823 140 L807 156 L783 156 L769 142 L718 142 L704 156 L699 156 L689 146 L682 146 L677 151 L677 149 L668 140 L617 140 L608 149 L608 150 L591 167 L546 167 L530 151 L530 156 L511 175 L501 175 L498 178 L498 161 L498 161 L450 161 L436 147 L436 127 L420 111 L395 111 L392 114 L387 114 L353 80 L326 80 L319 87 L319 95 L309 105 L290 105 L282 113 L282 118 L274 126 L247 126"></path>
<path fill="#a0a5a2" stroke-opacity="0" d="M200 166 L204 170 L204 204 L204 177 L202 175 L214 163 L249 163 L254 158 L254 141 L265 152 L294 152 L299 147 L299 139 L306 132 L322 132 L353 163 L353 177 L357 181 L376 181 L376 203 L371 208 L371 211 L346 236 L346 283 L340 289 L351 300 L351 332 L377 358 L377 370 L377 356 L376 355 L385 364 L405 364 L413 372 L555 372 L573 354 L689 354 L689 345 L687 343 L536 343 L521 358 L390 358 L372 340 L372 312 L347 287 L359 275 L359 231 L374 216 L389 216 L400 227 L400 242 L406 248 L417 248 L426 239 L426 230 L434 238 L438 238 L446 246 L446 263 L451 268 L477 268 L477 248 L477 248 L482 243 L490 243 L490 231 L479 220 L489 210 L499 210 L499 200 L499 200 L499 198 L485 184 L485 189 L477 197 L464 197 L463 196 L463 195 L453 185 L464 174 L464 173 L448 173 L434 187 L442 195 L442 200 L438 200 L406 232 L406 229 L396 219 L400 215 L400 206 L396 206 L389 199 L393 203 L405 203 L408 200 L408 190 L404 190 L392 178 L395 175 L413 175 L426 188 L429 188 L448 169 L453 169 L459 175 L471 175 L471 164 L471 164 L450 164 L446 160 L440 160 L425 175 L425 172 L415 162 L405 162 L404 163 L408 159 L412 159 L412 121 L410 119 L391 119 L390 118 L390 112 L376 98 L365 98 L364 99 L364 115 L362 117 L352 117 L347 112 L353 106 L353 83 L330 83 L322 91 L322 98 L311 109 L292 109 L285 116 L285 123 L279 129 L238 129 L238 129 L238 119 L237 118 L235 118 L211 142 L213 144 L213 159 L207 159"></path>
<path fill="#dad3c2" stroke-opacity="0" d="M863 109 L863 109 L851 121 L851 189 L851 189 L851 229 L838 242 L838 254 L711 381 L687 381 L663 405 L664 406 L664 420 L667 423 L677 423 L686 414 L709 414 L711 412 L711 399 L726 384 L733 384 L734 383 L755 383 L836 302 L836 285 L844 293 L844 376 L844 386 L820 410 L827 417 L843 417 L848 422 L848 540 L848 559 L833 574 L773 574 L766 581 L766 590 L766 590 L770 586 L846 586 L856 576 L856 542 L863 549 L863 594 L863 109"></path>
<path fill="#aaa597" stroke-opacity="0" d="M36 112 L36 187 L35 188 L43 196 L43 196 L54 185 L55 185 L70 200 L73 200 L38 200 L28 210 L28 217 L28 217 L33 212 L86 212 L89 215 L89 221 L131 179 L131 169 L137 163 L137 148 L135 148 L91 192 L91 128 L91 128 L80 128 L80 128 L80 139 L76 143 L71 143 L56 158 L56 123 L51 118 L42 118"></path>
<path fill="#606d7d" stroke-opacity="0" d="M324 127 L305 127 L299 133 L299 141 L294 146 L268 146 L256 134 L256 150 L249 157 L214 157 L203 168 L211 176 L211 213 L219 221 L247 221 L254 228 L254 250 L256 248 L273 248 L280 255 L280 262 L282 264 L305 264 L305 274 L283 296 L274 296 L247 269 L205 269 L203 271 L204 272 L204 286 L213 295 L234 295 L244 305 L244 312 L244 323 L228 339 L214 339 L206 331 L211 336 L211 346 L214 349 L231 349 L250 330 L250 315 L250 306 L227 283 L232 278 L247 278 L290 321 L290 322 L299 313 L299 284 L307 276 L315 276 L315 256 L315 256 L290 256 L287 253 L287 244 L278 235 L259 235 L255 239 L255 216 L254 215 L228 215 L217 204 L217 191 L205 179 L220 164 L252 164 L257 159 L257 142 L270 155 L293 155 L301 147 L301 140 L304 137 L326 137 L326 129"></path>
<path fill="#4f5f71" stroke-opacity="0" d="M255 137 L255 155 L254 156 L242 156 L238 160 L238 168 L238 168 L242 164 L255 164 L260 159 L260 143 L274 157 L293 157 L302 148 L302 142 L308 136 L322 136 L348 162 L348 177 L358 187 L367 187 L367 204 L365 206 L365 215 L343 237 L343 281 L340 284 L344 280 L344 246 L370 220 L370 215 L376 209 L376 175 L357 175 L353 171 L353 159 L322 128 L307 128 L301 134 L301 141 L293 149 L267 149"></path>
<path fill="#3f516b" stroke-opacity="0" d="M258 138 L258 155 L256 157 L234 157 L227 164 L227 173 L226 174 L230 170 L255 170 L261 164 L261 146 L275 160 L291 160 L294 157 L303 157 L304 156 L304 144 L309 139 L323 139 L347 163 L347 180 L356 189 L362 189 L362 215 L339 238 L339 273 L339 273 L343 269 L343 241 L368 216 L368 203 L368 182 L366 180 L357 180 L347 170 L347 155 L322 130 L308 130 L302 136 L302 142 L293 151 L271 151"></path>
<path fill="#2e415f" stroke-opacity="0" d="M361 182 L355 182 L346 173 L346 156 L323 133 L309 133 L304 138 L304 150 L304 150 L295 150 L291 154 L274 154 L260 140 L260 159 L255 164 L214 164 L206 172 L211 177 L211 204 L225 218 L251 218 L255 222 L255 245 L259 241 L278 241 L287 250 L287 259 L291 263 L316 263 L314 263 L300 277 L300 306 L290 316 L290 315 L247 272 L232 272 L225 279 L215 279 L208 272 L208 288 L208 288 L213 293 L236 293 L248 305 L248 312 L248 332 L247 333 L246 333 L231 348 L213 348 L209 344 L209 343 L190 324 L195 329 L195 350 L182 350 L178 346 L178 335 L172 329 L166 329 L146 349 L146 342 L137 333 L137 283 L136 282 L122 282 L108 268 L108 288 L107 289 L120 302 L132 302 L121 302 L104 319 L79 319 L71 311 L71 320 L71 320 L94 343 L94 351 L110 367 L123 367 L152 396 L212 396 L221 387 L237 387 L242 382 L242 366 L247 361 L264 361 L266 359 L266 343 L281 328 L291 328 L292 329 L322 329 L371 378 L371 384 L371 366 L371 366 L371 361 L342 332 L342 316 L336 310 L338 308 L338 245 L364 219 L364 202 L364 185"></path>
<path fill="#1b2d4f" stroke-opacity="0" d="M359 185 L345 185 L337 177 L339 175 L339 163 L339 158 L320 139 L316 139 L310 145 L310 162 L308 164 L283 164 L272 153 L272 158 L259 171 L248 171 L244 167 L244 170 L235 179 L211 179 L211 179 L211 188 L209 190 L217 198 L217 204 L222 209 L249 209 L265 193 L265 180 L268 183 L268 235 L283 220 L283 214 L291 222 L299 222 L314 207 L314 206 L323 215 L326 215 L316 215 L315 216 L315 242 L307 250 L318 261 L329 261 L335 255 L335 226 L358 203 L358 203 L359 202"></path>
<path fill="#929590" stroke-opacity="0" d="M31 152 L37 158 L37 202 L31 202 L23 210 L23 221 L19 225 L25 231 L25 255 L45 235 L71 235 L89 217 L89 216 L89 213 L55 179 L45 179 L37 187 L37 158"></path>
<path fill="#bcbcb6" stroke-opacity="0" d="M266 256 L266 247 L266 247 L253 247 L239 233 L245 227 L246 227 L246 216 L242 212 L216 212 L211 207 L211 185 L199 173 L215 157 L215 156 L205 156 L195 166 L196 167 L196 195 L212 211 L212 216 L219 223 L234 223 L234 230 L232 232 L216 232 L207 223 L207 230 L196 241 L178 241 L171 248 L167 248 L160 241 L160 219 L158 217 L138 217 L127 228 L134 235 L136 235 L144 227 L158 227 L158 250 L158 250 L167 259 L178 259 L186 251 L186 249 L191 254 L191 264 L208 247 L208 232 L235 259 L251 259 L254 256"></path>
<path fill="#89999e" stroke-opacity="0" d="M468 164 L454 164 L453 163 L448 163 L429 182 L426 182 L413 169 L395 169 L393 171 L393 205 L390 208 L406 224 L406 238 L407 237 L415 237 L415 225 L415 225 L432 208 L432 208 L435 211 L451 211 L456 206 L456 191 L437 191 L437 191 L451 177 L470 177 L470 166"></path>
<path fill="#93a0a1" stroke-opacity="0" d="M22 211 L22 240 L17 245 L33 261 L33 277 L33 300 L19 314 L28 323 L28 403 L41 390 L41 382 L48 389 L72 389 L87 374 L96 374 L135 413 L153 413 L127 413 L126 414 L126 425 L115 436 L124 427 L180 427 L203 404 L203 401 L205 399 L230 399 L230 391 L230 391 L179 391 L178 390 L141 390 L122 371 L110 371 L89 350 L89 339 L60 310 L66 316 L103 316 L113 306 L117 306 L118 305 L118 295 L118 294 L96 272 L103 265 L110 265 L116 259 L116 245 L121 240 L145 240 L170 265 L170 266 L170 275 L168 277 L149 277 L144 282 L149 287 L149 316 L151 314 L151 301 L156 296 L161 296 L168 303 L168 306 L186 324 L227 324 L227 298 L227 298 L212 298 L205 291 L205 273 L199 267 L201 269 L236 269 L244 261 L244 261 L261 278 L261 279 L269 271 L284 271 L284 253 L273 242 L256 242 L254 244 L254 244 L246 236 L247 235 L247 215 L238 215 L236 213 L247 224 L247 250 L232 250 L208 226 L208 241 L191 258 L191 248 L186 243 L186 245 L178 253 L167 253 L157 243 L157 221 L156 220 L120 220 L108 232 L108 240 L94 254 L58 254 L54 250 L74 230 L83 230 L94 219 L94 210 L64 210 L25 249 L25 245 L18 238 L22 234"></path>
<path fill="#6e7b87" stroke-opacity="0" d="M61 303 L61 317 L60 318 L98 356 L98 363 L122 387 L146 387 L156 397 L200 397 L200 412 L185 427 L205 407 L209 407 L219 397 L240 397 L291 346 L291 342 L304 355 L331 355 L357 381 L357 388 L375 406 L400 406 L400 393 L398 391 L398 373 L350 325 L350 278 L339 267 L339 309 L333 315 L371 353 L371 378 L371 374 L318 321 L316 321 L309 328 L297 328 L291 322 L281 322 L268 335 L268 347 L263 352 L244 352 L240 356 L243 359 L243 374 L239 374 L223 390 L167 390 L150 373 L122 373 L94 345 L94 338 L75 319 L81 325 L104 325 L123 306 L133 306 L133 296 L133 296 L120 296 L108 284 L108 275 L107 274 L120 287 L136 287 L141 292 L141 335 L151 345 L151 348 L167 332 L167 330 L175 338 L181 338 L188 331 L188 322 L203 337 L205 337 L205 327 L191 313 L171 313 L163 321 L163 324 L153 334 L150 334 L144 328 L144 287 L144 287 L152 279 L170 279 L170 259 L168 257 L168 257 L145 234 L121 234 L116 239 L116 247 L95 268 L113 286 L113 302 L111 302 L103 310 L68 310"></path>
<path fill="#7f9099" stroke-opacity="0" d="M307 259 L283 259 L280 256 L280 251 L274 245 L282 253 L282 266 L271 266 L264 273 L262 273 L244 255 L244 255 L236 263 L204 263 L201 260 L201 281 L198 284 L207 293 L207 299 L212 304 L223 304 L223 315 L221 317 L186 317 L159 290 L159 299 L150 308 L150 298 L147 295 L147 333 L145 335 L150 340 L153 340 L163 330 L163 327 L171 319 L191 319 L212 340 L212 344 L213 345 L228 345 L240 333 L240 332 L244 328 L244 305 L244 299 L234 289 L214 289 L213 288 L213 288 L203 278 L206 275 L247 275 L274 302 L283 302 L290 295 L294 295 L307 282"></path>
<path fill="#a8b1ad" stroke-opacity="0" d="M837 282 L834 282 L830 278 L830 296 L815 311 L807 311 L791 327 L791 343 L780 354 L778 354 L755 377 L727 377 L715 389 L715 402 L709 408 L686 408 L677 417 L668 417 L663 412 L655 412 L648 419 L648 429 L643 434 L618 434 L606 446 L606 456 L603 459 L604 460 L643 460 L643 462 L639 466 L599 466 L595 462 L593 462 L583 472 L558 472 L557 473 L543 473 L530 460 L517 460 L511 466 L504 466 L486 448 L502 464 L502 472 L523 493 L539 493 L539 481 L529 471 L542 484 L571 484 L583 472 L595 472 L600 477 L629 477 L639 467 L661 467 L664 464 L664 453 L661 453 L652 444 L657 439 L657 430 L669 418 L713 418 L724 407 L724 398 L725 399 L725 405 L725 405 L741 405 L750 396 L750 388 L776 362 L788 362 L794 356 L794 336 L827 303 L831 303 L841 313 L841 326 L841 377 L839 379 L827 379 L808 398 L808 408 L802 414 L796 414 L755 455 L724 455 L659 520 L628 520 L617 531 L483 531 L466 514 L478 526 L478 530 L489 519 L494 519 L509 534 L576 534 L591 549 L597 549 L599 547 L614 547 L615 548 L615 562 L570 562 L569 561 L569 549 L566 546 L472 546 L470 548 L470 553 L467 556 L468 557 L550 557 L527 557 L516 568 L452 568 L452 568 L420 568 L408 556 L387 556 L358 527 L358 543 L355 546 L391 582 L405 582 L369 582 L365 586 L349 586 L327 564 L313 564 L303 574 L276 574 L265 563 L265 571 L254 582 L196 582 L193 585 L193 593 L193 593 L194 594 L680 594 L688 586 L798 586 L799 585 L799 577 L805 571 L819 571 L820 570 L820 556 L805 556 L799 550 L807 542 L812 542 L734 542 L726 550 L726 559 L722 563 L723 564 L782 564 L752 564 L741 575 L563 575 L563 575 L566 572 L632 572 L632 560 L622 550 L630 542 L690 542 L708 524 L708 522 L712 518 L727 518 L727 509 L719 501 L731 489 L766 489 L766 470 L759 463 L769 453 L802 453 L817 438 L824 438 L827 441 L837 441 L837 415 L832 410 L813 410 L802 421 L839 384 L841 384 L841 286"></path>
<path fill="#223456" stroke-opacity="0" d="M243 283 L245 285 L245 303 L254 312 L257 312 L254 312 L248 318 L250 320 L250 349 L254 353 L259 353 L268 344 L268 335 L273 330 L284 330 L284 319 L284 319 L284 310 L269 295 L255 295"></path>
<path fill="#8fa2aa" stroke-opacity="0" d="M829 296 L829 305 L816 318 L806 318 L795 329 L795 349 L788 356 L783 356 L758 381 L745 381 L744 382 L744 389 L744 389 L744 389 L760 389 L790 359 L803 359 L810 352 L810 333 L825 318 L830 318 L834 322 L837 322 L839 324 L839 374 L827 374 L800 401 L800 420 L789 431 L839 381 L840 381 L840 319 L840 319 L840 307"></path>
<path fill="#40546d" stroke-opacity="0" d="M128 333 L131 336 L131 345 L133 343 L144 343 L146 345 L146 355 L166 335 L172 335 L178 341 L178 352 L182 356 L195 356 L195 335 L190 330 L209 349 L209 350 L213 354 L231 354 L247 338 L247 338 L247 313 L247 313 L247 326 L229 344 L215 344 L211 340 L211 338 L189 316 L189 324 L181 332 L175 332 L167 324 L167 326 L151 342 L151 339 L140 328 L141 327 L141 306 L141 324 L138 327 L134 327"></path>
<path fill="#969690" stroke-opacity="0" d="M764 312 L737 312 L735 314 L721 314 L685 350 L568 350 L556 362 L556 373 L556 373 L566 363 L678 363 L683 368 L683 371 L705 349 L724 349 L724 349 L695 378 L676 378 L669 385 L669 400 L669 400 L671 402 L685 402 L717 370 L728 370 L764 334"></path>
<path fill="#607688" stroke-opacity="0" d="M836 315 L822 315 L809 328 L809 347 L799 357 L776 357 L748 385 L756 393 L758 393 L771 380 L771 378 L784 365 L804 365 L820 349 L820 334 L822 336 L837 336 L837 374 L836 375 L788 375 L745 418 L745 425 L743 427 L744 426 L756 426 L756 426 L749 433 L697 433 L676 454 L676 457 L658 475 L608 475 L607 474 L607 488 L599 496 L569 496 L557 484 L557 493 L554 496 L565 507 L565 507 L552 507 L547 502 L556 511 L556 518 L465 518 L452 505 L452 512 L452 512 L477 537 L617 537 L628 526 L659 526 L724 461 L755 461 L793 423 L796 423 L804 415 L804 403 L822 385 L836 385 L836 315"></path>
<path fill="#4d6981" stroke-opacity="0" d="M836 329 L817 329 L816 330 L816 347 L804 359 L775 359 L747 387 L747 387 L719 415 L671 415 L659 427 L659 448 L657 450 L657 450 L690 450 L752 388 L829 388 L837 380 L837 375 L837 330"></path>
<path fill="#274162" stroke-opacity="0" d="M832 332 L826 332 L820 338 L820 356 L811 365 L786 365 L774 377 L774 381 L739 416 L743 420 L753 420 L791 382 L830 382 L832 380"></path>
<path fill="#bdbeb6" stroke-opacity="0" d="M843 331 L843 376 L842 377 L842 377 L801 418 L801 428 L801 428 L813 416 L827 416 L833 422 L836 422 L836 432 L828 440 L840 452 L840 457 L840 472 L829 483 L839 493 L839 493 L835 493 L819 509 L826 516 L838 516 L840 518 L840 538 L775 538 L774 537 L672 537 L646 563 L631 563 L622 554 L633 543 L650 543 L650 537 L648 535 L630 535 L618 547 L622 551 L622 573 L624 571 L684 571 L706 549 L768 549 L783 564 L820 564 L752 564 L738 578 L738 584 L736 586 L745 577 L836 577 L847 566 L847 547 L847 415 L842 410 L838 410 L829 401 L843 387 L843 383 L843 331"></path>
<path fill="#d7d0c2" stroke-opacity="0" d="M390 427 L390 407 L336 353 L308 353 L291 336 L291 340 L240 391 L219 391 L209 401 L206 401 L186 421 L168 421 L168 421 L168 457 L166 459 L149 459 L142 466 L142 473 L136 479 L138 481 L154 481 L166 469 L167 469 L172 464 L172 450 L172 448 L165 441 L170 436 L178 436 L198 456 L207 456 L213 462 L213 490 L217 486 L232 486 L241 495 L243 495 L254 484 L254 464 L230 464 L217 451 L220 448 L234 448 L246 436 L246 424 L249 427 L263 427 L297 393 L298 393 L314 409 L314 422 L324 432 L337 432 L342 427 L353 427 L385 459 L395 459 L395 432"></path>
<path fill="#3f536b" stroke-opacity="0" d="M725 343 L704 343 L682 365 L682 378 L670 390 L676 384 L695 384 L714 365 L719 365 L725 359"></path>
<path fill="#9b9488" stroke-opacity="0" d="M373 347 L376 350 L376 362 L392 378 L401 378 L406 373 L512 373 L512 365 L508 361 L408 361 L405 358 L384 358"></path>
<path fill="#777572" stroke-opacity="0" d="M692 354 L615 354 L597 372 L539 372 L539 372 L539 383 L539 383 L576 420 L577 420 L562 420 L561 421 L563 423 L563 432 L569 426 L585 426 L585 414 L570 399 L580 389 L657 389 L627 389 L606 410 L606 424 L596 434 L542 434 L535 441 L535 428 L534 427 L528 427 L518 417 L518 434 L518 434 L489 434 L480 425 L467 425 L458 434 L449 434 L444 429 L444 436 L444 436 L458 450 L464 450 L473 459 L526 459 L544 441 L624 441 L661 404 L678 404 L678 395 L669 386 L692 363"></path>
<path fill="#807a70" stroke-opacity="0" d="M376 356 L378 358 L378 371 L391 384 L399 384 L403 380 L516 380 L516 371 L516 371 L402 371 L401 372 L392 372"></path>
<path fill="#acb2af" stroke-opacity="0" d="M463 440 L446 440 L408 402 L380 402 L368 390 L368 384 L346 362 L395 411 L395 453 L385 453 L353 421 L342 421 L337 426 L324 426 L314 416 L314 403 L298 387 L297 387 L263 421 L249 421 L246 418 L246 430 L234 442 L220 442 L218 444 L218 457 L217 458 L229 470 L254 470 L254 478 L243 489 L237 489 L228 480 L242 494 L242 502 L261 483 L261 470 L270 479 L300 479 L306 473 L306 460 L306 456 L293 443 L274 443 L258 459 L227 459 L221 453 L222 454 L248 454 L248 434 L243 429 L246 426 L256 426 L256 441 L256 441 L256 441 L266 441 L272 435 L272 422 L272 422 L292 422 L292 414 L287 409 L299 397 L299 397 L315 413 L315 427 L311 427 L302 436 L302 448 L302 448 L303 449 L317 449 L325 441 L325 428 L333 436 L336 436 L341 431 L348 431 L378 461 L378 465 L416 503 L445 503 L451 497 L451 490 L446 490 L410 454 L418 446 L437 446 L447 456 L456 456 L463 449"></path>
<path fill="#666461" stroke-opacity="0" d="M378 365 L401 388 L401 405 L430 434 L437 434 L444 441 L469 441 L470 440 L470 433 L472 431 L490 431 L499 440 L519 440 L519 424 L518 423 L528 433 L534 433 L536 431 L563 431 L563 429 L550 416 L518 416 L515 413 L515 420 L509 426 L495 426 L489 420 L526 383 L529 383 L529 373 L529 373 L404 373 L399 378 L391 378"></path>
<path fill="#b3aca2" stroke-opacity="0" d="M619 365 L461 365 L459 367 L459 376 L459 376 L462 379 L526 379 L519 379 L482 416 L483 417 L483 425 L490 432 L509 432 L522 419 L523 419 L532 428 L573 428 L578 423 L578 415 L578 414 L543 379 L547 375 L614 375 L619 370"></path>
<path fill="#a6b0ae" stroke-opacity="0" d="M18 367 L20 369 L20 405 L42 427 L42 435 L51 444 L60 444 L47 444 L36 455 L36 472 L36 472 L47 483 L52 483 L52 485 L27 510 L27 528 L21 534 L44 511 L44 501 L47 498 L122 498 L128 492 L136 492 L142 486 L142 472 L148 466 L165 466 L169 462 L169 422 L130 422 L130 422 L101 422 L86 437 L58 437 L53 432 L53 428 L20 395 L20 369"></path>
<path fill="#7c8489" stroke-opacity="0" d="M153 408 L136 408 L96 368 L87 368 L72 383 L48 383 L41 376 L41 377 L31 387 L36 392 L36 420 L57 441 L67 441 L71 437 L112 437 L126 423 L126 420 L131 425 L150 425 L153 422"></path>
<path fill="#4c4b49" stroke-opacity="0" d="M661 382 L581 382 L570 393 L570 405 L569 406 L584 421 L585 421 L541 421 L535 427 L535 447 L535 447 L543 439 L598 439 L602 435 L602 419 L622 399 L652 399 L661 390"></path>
<path fill="#3f4f66" stroke-opacity="0" d="M37 388 L37 404 L36 405 L53 422 L53 428 L53 428 L114 428 L114 416 L114 416 L114 414 L86 386 L82 386 L74 394 L43 394"></path>
<path fill="#8ca5ab" stroke-opacity="0" d="M769 415 L717 415 L687 445 L658 445 L657 444 L659 442 L659 433 L671 421 L719 421 L735 405 L735 386 L735 390 L713 412 L669 412 L653 428 L661 436 L661 461 L639 461 L629 471 L600 471 L595 466 L583 466 L571 478 L542 478 L529 465 L529 472 L525 476 L518 476 L511 469 L511 480 L511 480 L532 501 L546 501 L547 500 L547 484 L561 498 L593 498 L601 490 L601 477 L607 483 L639 483 L647 475 L667 475 L676 466 L676 460 L697 439 L749 439 L769 419"></path>
<path fill="#31435b" stroke-opacity="0" d="M39 390 L52 403 L52 424 L55 427 L110 427 L110 413 L87 390 L87 392 L66 413 L62 413"></path>
<path fill="#514e4a" stroke-opacity="0" d="M501 393 L418 393 L417 392 L417 402 L417 402 L444 429 L444 430 L448 426 L470 426 L471 425 L471 413 L474 410 L493 410 L501 402"></path>
<path fill="#8299a2" stroke-opacity="0" d="M350 427 L330 427 L325 422 L325 435 L319 441 L306 441 L304 443 L317 430 L317 424 L317 409 L299 391 L297 391 L271 417 L271 430 L266 435 L257 435 L257 435 L257 421 L256 420 L246 420 L244 422 L244 443 L243 444 L224 444 L221 447 L225 451 L225 464 L227 466 L259 466 L259 499 L247 511 L236 511 L235 512 L235 519 L233 521 L235 519 L247 519 L261 505 L261 473 L269 481 L303 481 L304 480 L304 453 L305 452 L318 452 L328 442 L328 436 L330 438 L344 438 L350 432"></path>
<path fill="#c6bfb3" stroke-opacity="0" d="M18 395 L25 402 L25 431 L25 537 L19 543 L27 551 L27 574 L46 593 L51 593 L52 594 L133 594 L133 585 L131 583 L53 583 L50 580 L50 576 L31 557 L36 552 L36 519 L53 502 L53 502 L55 500 L70 500 L70 494 L36 460 L45 451 L67 451 L81 465 L100 465 L115 450 L115 435 L59 435 L57 437 L57 434"></path>
<path fill="#c2c3ba" stroke-opacity="0" d="M660 453 L605 453 L605 453 L618 440 L643 440 L645 438 L645 423 L595 423 L568 450 L503 450 L501 452 L501 461 L501 461 L513 473 L514 473 L521 466 L530 466 L543 479 L565 479 L576 468 L595 468 L600 473 L636 473 L645 464 L659 464 L660 463"></path>
<path fill="#d8cfbf" stroke-opacity="0" d="M116 435 L142 461 L142 468 L146 464 L163 464 L163 434 L158 429 L122 429"></path>
<path fill="#94a4a6" stroke-opacity="0" d="M410 584 L410 578 L393 561 L376 561 L355 540 L356 539 L356 516 L356 492 L330 466 L350 446 L350 428 L320 428 L302 446 L309 453 L309 466 L309 468 L301 476 L270 476 L261 467 L261 479 L244 496 L244 495 L230 481 L214 481 L212 483 L212 459 L210 457 L210 452 L197 439 L171 439 L166 434 L171 439 L171 455 L171 460 L152 479 L176 503 L182 503 L183 504 L183 514 L195 526 L218 526 L218 565 L214 569 L217 566 L230 566 L249 547 L249 544 L264 559 L267 559 L280 546 L286 546 L294 554 L303 554 L303 541 L299 537 L293 537 L274 518 L280 512 L280 511 L282 513 L302 513 L325 536 L325 542 L329 538 L341 538 L372 569 L372 571 L377 576 L390 576 L370 576 L365 581 L352 581 L340 569 L360 589 L360 591 L367 584"></path>
<path fill="#6c8d9e" stroke-opacity="0" d="M836 438 L830 438 L824 432 L817 432 L802 447 L769 447 L759 457 L759 471 L755 475 L762 482 L762 483 L731 483 L719 495 L719 505 L715 509 L719 513 L729 513 L751 491 L781 491 L781 478 L775 472 L795 452 L834 452 L836 450"></path>
<path fill="#7e858a" stroke-opacity="0" d="M330 455 L335 460 L335 486 L360 511 L360 533 L392 565 L415 565 L426 576 L476 576 L485 567 L619 567 L619 545 L616 542 L616 553 L610 559 L580 559 L579 558 L582 555 L582 544 L565 544 L560 539 L488 539 L484 543 L494 533 L494 526 L496 528 L517 528 L517 521 L517 521 L467 521 L455 509 L455 490 L451 486 L451 491 L445 497 L428 497 L415 484 L403 484 L353 434 L351 434"></path>
<path fill="#78909e" stroke-opacity="0" d="M411 447 L413 449 L413 469 L427 483 L429 483 L432 480 L432 472 L432 471 L415 454 L431 470 L436 470 L443 463 L449 463 L460 474 L469 474 L474 469 L474 462 L511 499 L525 499 L543 517 L573 517 L573 506 L557 490 L569 502 L599 502 L607 494 L607 480 L613 486 L638 486 L648 476 L665 476 L665 469 L665 469 L647 469 L639 477 L607 477 L601 471 L601 484 L593 492 L561 492 L547 478 L547 490 L543 494 L531 494 L511 474 L511 469 L486 444 L475 444 L470 439 L464 439 L453 450 L443 450 L433 440 L433 440 L423 450 L414 450"></path>
<path fill="#475c73" stroke-opacity="0" d="M837 441 L827 441 L809 459 L779 459 L771 467 L772 468 L772 488 L745 488 L733 500 L726 500 L690 536 L633 536 L621 548 L622 549 L622 561 L630 569 L651 569 L677 543 L774 543 L779 548 L836 548 L837 547"></path>
<path fill="#41546c" stroke-opacity="0" d="M414 449 L430 465 L430 484 L440 494 L453 494 L456 497 L456 513 L467 524 L556 524 L556 508 L556 508 L523 508 L471 456 L471 466 L469 468 L460 468 L449 457 L443 457 L436 464 L429 464"></path>
<path fill="#304662" stroke-opacity="0" d="M735 459 L725 459 L719 465 L719 460 L716 457 L694 457 L694 457 L688 457 L662 483 L622 483 L621 482 L621 487 L607 501 L577 501 L566 490 L566 493 L561 498 L589 526 L595 526 L597 524 L653 524 L659 518 L659 510 L656 510 L649 503 L649 503 L689 503 L733 459"></path>
<path fill="#1e3051" stroke-opacity="0" d="M442 471 L444 473 L444 483 L465 504 L476 504 L495 523 L557 523 L557 510 L557 510 L525 510 L481 466 L493 478 L493 493 L482 493 L452 463 L450 463"></path>
<path fill="#5a6a78" stroke-opacity="0" d="M208 534 L207 534 L185 512 L156 512 L152 516 L158 510 L158 491 L158 488 L141 471 L141 481 L137 485 L129 485 L122 492 L88 492 L84 488 L60 488 L50 498 L50 502 L32 520 L32 552 L29 555 L43 569 L43 581 L50 588 L58 588 L59 587 L209 587 L209 580 L209 580 L60 580 L58 578 L56 578 L34 556 L34 528 L34 528 L56 506 L63 506 L74 517 L74 519 L90 503 L107 503 L112 508 L123 508 L144 487 L144 486 L149 491 L149 505 L134 505 L121 518 L129 526 L129 538 L130 539 L143 539 L149 533 L149 529 L153 533 L171 533 L181 523 L181 523 L199 541 L207 541 L207 562 L207 562 L208 561"></path>
<path fill="#8098a3" stroke-opacity="0" d="M151 475 L158 482 L158 494 L158 515 L151 522 L156 517 L181 517 L200 536 L211 536 L214 533 L229 533 L229 523 L229 523 L204 523 L201 520 L201 514 L162 475 L151 475"></path>
<path fill="#42546a" stroke-opacity="0" d="M278 510 L279 511 L279 528 L300 549 L309 549 L311 551 L311 565 L333 587 L365 587 L368 584 L393 584 L393 573 L392 572 L379 572 L372 565 L372 563 L341 532 L329 532 L325 536 L325 530 L302 507 L281 507"></path>
<path fill="#1c2e51" stroke-opacity="0" d="M352 487 L366 501 L366 523 L403 560 L412 560 L423 571 L474 571 L480 565 L519 565 L519 565 L509 555 L460 555 L455 550 L438 550 L422 534 L414 534 L367 487 L352 487"></path>
<path fill="#2d3f59" stroke-opacity="0" d="M35 537 L36 538 L36 559 L53 576 L53 580 L56 583 L248 583 L248 567 L241 560 L239 560 L230 569 L212 569 L208 565 L208 536 L206 534 L198 534 L181 517 L181 517 L171 527 L154 527 L151 524 L151 530 L143 538 L131 538 L126 533 L126 531 L117 522 L130 509 L146 509 L147 508 L147 489 L138 489 L121 506 L113 506 L107 500 L92 500 L77 515 L80 518 L80 531 L71 531 L65 537 L65 565 L63 567 L63 565 L49 551 L55 545 L55 531 L41 531"></path>
<path fill="#6b7982" stroke-opacity="0" d="M348 575 L327 575 L311 559 L311 545 L309 543 L300 543 L278 521 L293 506 L293 504 L280 504 L276 508 L276 524 L275 525 L293 543 L297 543 L289 543 L286 540 L280 540 L267 553 L264 553 L249 538 L243 538 L217 564 L217 536 L211 530 L206 530 L198 522 L198 532 L197 533 L205 541 L209 541 L209 568 L207 570 L212 575 L230 575 L239 566 L241 566 L246 571 L246 578 L76 578 L72 582 L72 583 L64 591 L66 589 L251 589 L265 575 L265 569 L276 580 L303 580 L313 570 L321 570 L334 583 L348 583 L348 575"></path>
<path fill="#263a58" stroke-opacity="0" d="M284 515 L285 516 L285 528 L304 547 L314 547 L318 551 L318 562 L341 585 L364 585 L366 583 L389 583 L389 574 L386 571 L375 571 L372 568 L372 567 L341 536 L334 536 L328 542 L328 540 L300 512 L287 512"></path>
<path fill="#1d365a" stroke-opacity="0" d="M833 520 L815 520 L808 513 L791 513 L782 522 L704 522 L698 528 L699 529 L699 542 L653 542 L650 545 L650 547 L639 558 L639 558 L686 558 L708 536 L779 536 L783 540 L831 540 L833 538"></path>
<path fill="#c6beac" stroke-opacity="0" d="M456 531 L467 542 L467 548 L470 545 L560 545 L565 550 L579 550 L579 563 L578 564 L578 564 L613 564 L614 563 L614 541 L599 541 L597 543 L588 543 L572 527 L504 527 L496 519 L496 523 L483 536 L461 536"></path>
<path fill="#1e314e" stroke-opacity="0" d="M207 572 L202 572 L195 565 L197 563 L197 539 L186 539 L157 568 L165 560 L165 551 L165 551 L179 551 L179 541 L175 537 L166 537 L162 541 L162 537 L157 532 L157 548 L151 554 L138 554 L134 558 L134 547 L126 539 L97 539 L96 538 L96 545 L87 554 L76 554 L73 557 L80 564 L80 581 L83 578 L106 578 L107 577 L107 566 L121 580 L121 582 L122 581 L206 581 L207 580"></path>
<path fill="#7897a1" stroke-opacity="0" d="M782 558 L577 558 L569 566 L569 572 L561 580 L564 583 L723 583 L731 575 L776 575 L782 569"></path>
</svg>